REM DIRINDEX 1\2,1\3,1\4,1\5,1\6
REM DIRNAME cjc129,folder01,folder02,folder03,folder04,folder05
TITLE ""
FILE "DISC3Track14.mp3" MP3
  TRACK 01 AUDIO
    TITLE "0:"
    INDEX 01 00:00:00
  TRACK 02 AUDIO
    TITLE "2:cjc129_2426"
    INDEX 01 00:03:14
  TRACK 03 AUDIO
    TITLE "0:"
    INDEX 01 00:12:28
  TRACK 04 AUDIO
    TITLE "2:cjc129_2427"
    INDEX 01 00:13:41
  TRACK 05 AUDIO
    TITLE "0:"
    INDEX 01 00:19:50
  TRACK 06 AUDIO
    TITLE "3:cjc129_2428"
    INDEX 01 00:20:61
  TRACK 07 AUDIO
    TITLE "0:"
    INDEX 01 00:23:28
  TRACK 08 AUDIO
    TITLE "5:cjc129_2429"
    INDEX 01 00:23:59
  TRACK 09 AUDIO
    TITLE "0:"
    INDEX 01 00:26:38
  TRACK 10 AUDIO
    TITLE "4:cjc129_2430"
    INDEX 01 00:27:26
  TRACK 11 AUDIO
    TITLE "0:"
    INDEX 01 00:29:68
  TRACK 12 AUDIO
    TITLE "6:cjc129_2431"
    INDEX 01 00:30:24
  TRACK 13 AUDIO
    TITLE "0:"
    INDEX 01 00:36:58
  TRACK 14 AUDIO
    TITLE "3:cjc129_2432"
    INDEX 01 00:38:31
  TRACK 15 AUDIO
    TITLE "0:"
    INDEX 01 00:40:28
  TRACK 16 AUDIO
    TITLE "5:cjc129_2433"
    INDEX 01 00:40:60
  TRACK 17 AUDIO
    TITLE "0:"
    INDEX 01 00:45:61
  TRACK 18 AUDIO
    TITLE "4:cjc129_2434"
    INDEX 01 00:46:51
  TRACK 19 AUDIO
    TITLE "0:"
    INDEX 01 00:48:48
  TRACK 20 AUDIO
    TITLE "6:cjc129_2435"
    INDEX 01 00:49:06
  TRACK 21 AUDIO
    TITLE "0:"
    INDEX 01 00:53:25
  TRACK 22 AUDIO
    TITLE "3:cjc129_2436"
    INDEX 01 00:55:01
  TRACK 23 AUDIO
    TITLE "0:"
    INDEX 01 00:57:19
  TRACK 24 AUDIO
    TITLE "5:cjc129_2437"
    INDEX 01 00:57:52
  TRACK 25 AUDIO
    TITLE "0:"
    INDEX 01 00:59:73
  TRACK 26 AUDIO
    TITLE "4:cjc129_2438"
    INDEX 01 01:00:66
  TRACK 27 AUDIO
    TITLE "0:"
    INDEX 01 01:03:10
  TRACK 28 AUDIO
    TITLE "6:cjc129_2439"
    INDEX 01 01:03:43
  TRACK 29 AUDIO
    TITLE "0:"
    INDEX 01 01:07:37
  TRACK 30 AUDIO
    TITLE "3:cjc129_2440"
    INDEX 01 01:09:12
  TRACK 31 AUDIO
    TITLE "0:"
    INDEX 01 01:11:13
  TRACK 32 AUDIO
    TITLE "5:cjc129_2441"
    INDEX 01 01:11:47
  TRACK 33 AUDIO
    TITLE "0:"
    INDEX 01 01:14:19
  TRACK 34 AUDIO
    TITLE "4:cjc129_2442"
    INDEX 01 01:15:09
  TRACK 35 AUDIO
    TITLE "0:"
    INDEX 01 01:17:10
  TRACK 36 AUDIO
    TITLE "6:cjc129_2443"
    INDEX 01 01:17:41
  TRACK 37 AUDIO
    TITLE "0:"
    INDEX 01 01:21:25
  TRACK 38 AUDIO
    TITLE "3:cjc129_2444"
    INDEX 01 01:23:01
  TRACK 39 AUDIO
    TITLE "0:"
    INDEX 01 01:25:02
  TRACK 40 AUDIO
    TITLE "5:cjc129_2445"
    INDEX 01 01:25:33
  TRACK 41 AUDIO
    TITLE "0:"
    INDEX 01 01:27:73
  TRACK 42 AUDIO
    TITLE "4:cjc129_2446"
    INDEX 01 01:28:67
  TRACK 43 AUDIO
    TITLE "0:"
    INDEX 01 01:30:67
  TRACK 44 AUDIO
    TITLE "6:cjc129_2447"
    INDEX 01 01:31:24
  TRACK 45 AUDIO
    TITLE "0:"
    INDEX 01 01:35:26
  TRACK 46 AUDIO
    TITLE "2:cjc129_2448"
    INDEX 01 01:37:01
  TRACK 47 AUDIO
    TITLE "0:"
    INDEX 01 01:43:19
  TRACK 48 AUDIO
    TITLE "3:cjc129_2449"
    INDEX 01 01:44:32
  TRACK 49 AUDIO
    TITLE "0:"
    INDEX 01 01:46:43
  TRACK 50 AUDIO
    TITLE "5:cjc129_2450"
    INDEX 01 01:46:74
  TRACK 51 AUDIO
    TITLE "0:"
    INDEX 01 01:49:33
  TRACK 52 AUDIO
    TITLE "4:cjc129_2451"
    INDEX 01 01:50:21
  TRACK 53 AUDIO
    TITLE "0:"
    INDEX 01 01:52:34
  TRACK 54 AUDIO
    TITLE "6:cjc129_2452"
    INDEX 01 01:52:65
  TRACK 55 AUDIO
    TITLE "0:"
    INDEX 01 01:56:53
  TRACK 56 AUDIO
    TITLE "3:cjc129_2453"
    INDEX 01 01:58:27
  TRACK 57 AUDIO
    TITLE "0:"
    INDEX 01 02:00:35
  TRACK 58 AUDIO
    TITLE "5:cjc129_2454"
    INDEX 01 02:00:65
  TRACK 59 AUDIO
    TITLE "0:"
    INDEX 01 02:06:65
  TRACK 60 AUDIO
    TITLE "4:cjc129_2455"
    INDEX 01 02:07:57
  TRACK 61 AUDIO
    TITLE "0:"
    INDEX 01 02:09:66
  TRACK 62 AUDIO
    TITLE "6:cjc129_2456"
    INDEX 01 02:10:22
  TRACK 63 AUDIO
    TITLE "0:"
    INDEX 01 02:13:63
  TRACK 64 AUDIO
    TITLE "3:cjc129_2457"
    INDEX 01 02:15:37
  TRACK 65 AUDIO
    TITLE "0:"
    INDEX 01 02:20:34
  TRACK 66 AUDIO
    TITLE "5:cjc129_2458"
    INDEX 01 02:20:69
  TRACK 67 AUDIO
    TITLE "0:"
    INDEX 01 02:23:01
  TRACK 68 AUDIO
    TITLE "4:cjc129_2459"
    INDEX 01 02:23:62
  TRACK 69 AUDIO
    TITLE "0:"
    INDEX 01 02:28:61
  TRACK 70 AUDIO
    TITLE "6:cjc129_2460"
    INDEX 01 02:29:21
  TRACK 71 AUDIO
    TITLE "0:"
    INDEX 01 02:33:23
